<svg xmlns="http://www.w3.org/2000/svg" width="32" height="32" viewBox="0 0 32 32" fill="none">
  <defs>
    <linearGradient id="bg" x1="0" y1="0" x2="32" y2="32" gradientUnits="userSpaceOnUse">
      <stop stop-color="#1a1a2e"/>
      <stop offset="1" stop-color="#16213e"/>
    </linearGradient>
    <linearGradient id="bull" x1="16" y1="4" x2="16" y2="28" gradientUnits="userSpaceOnUse">
      <stop stop-color="#f97316"/>
      <stop offset="1" stop-color="#ea580c"/>
    </linearGradient>
  </defs>
  <rect width="32" height="32" rx="8" fill="url(#bg)"/>
  <!-- 牛角 -->
  <path d="M6 8 C4 4, 8 3, 10 7 L12 11" stroke="url(#bull)" stroke-width="2.2" stroke-linecap="round" fill="none"/>
  <path d="M26 8 C28 4, 24 3, 22 7 L20 11" stroke="url(#bull)" stroke-width="2.2" stroke-linecap="round" fill="none"/>
  <!-- 牛头主体 -->
  <ellipse cx="16" cy="17" rx="8" ry="9" fill="url(#bull)"/>
  <!-- 耳朵 -->
  <ellipse cx="7.5" cy="12" rx="2" ry="2.5" fill="#ea580c" transform="rotate(-15 7.5 12)"/>
  <ellipse cx="24.5" cy="12" rx="2" ry="2.5" fill="#ea580c" transform="rotate(15 24.5 12)"/>
  <!-- 眼睛 -->
  <circle cx="12.5" cy="15" r="1.8" fill="#1a1a2e"/>
  <circle cx="19.5" cy="15" r="1.8" fill="#1a1a2e"/>
  <circle cx="13" cy="14.5" r="0.6" fill="#fff"/>
  <circle cx="20" cy="14.5" r="0.6" fill="#fff"/>
  <!-- 鼻子 -->
  <ellipse cx="14" cy="21" rx="1.5" ry="1" fill="#c2410c"/>
  <ellipse cx="18" cy="21" rx="1.5" ry="1" fill="#c2410c"/>
  <!-- 鼻环 -->
  <path d="M13.5 23 C14.5 25, 17.5 25, 18.5 23" stroke="#fbbf24" stroke-width="1.2" stroke-linecap="round" fill="none"/>
</svg>
